<svg width="57" height="60" viewBox="0 0 57 60" fill="none" xmlns="http://www.w3.org/2000/svg">
<path d="M0 11.25C0 7.11328 3.19512 3.75 7.125 3.75H21.8314C23.9578 3.75 25.9951 4.64062 27.498 6.22266L32.274 11.25H49.875C53.8049 11.25 57 14.6133 57 18.75V48.75C57 52.8867 53.8049 56.25 49.875 56.25H7.125C3.19512 56.25 0 52.8867 0 48.75V11.25ZM7.125 9.375C6.14531 9.375 5.34375 10.2187 5.34375 11.25V48.75C5.34375 49.7813 6.14531 50.625 7.125 50.625H49.875C50.8547 50.625 51.6562 49.7813 51.6562 48.75V18.75C51.6562 17.7187 50.8547 16.875 49.875 16.875H31.9066C30.7266 16.875 29.591 16.3828 28.7561 15.5039L23.724 10.1953C23.223 9.66797 22.5439 9.375 21.8314 9.375H7.125Z" fill="black"/>
<path d="M11 27C11 25.0695 12.5695 23.5 14.5 23.5H25H27.625H28.5H42.5C44.4305 23.5 46 25.0695 46 27V41C46 42.9305 44.4305 44.5 42.5 44.5H28.5H27.625H25H14.5C12.5695 44.5 11 42.9305 11 41V27ZM28.5 27V41H42.5V27H28.5ZM20.7508 29.6195C20.5758 29.2258 20.182 28.9688 19.75 28.9688C19.318 28.9688 18.9242 29.2258 18.7492 29.6195L15.2492 37.4945C15.0031 38.0469 15.2547 38.6922 15.807 38.9383C16.3594 39.1844 17.0047 38.9328 17.2508 38.3805L17.7375 37.2812H21.7625L22.2492 38.3805C22.4953 38.9328 23.1406 39.1789 23.693 38.9383C24.2453 38.6977 24.4914 38.0469 24.2508 37.4945L20.7508 29.6195ZM19.75 32.7531L20.7891 35.0938H18.7109L19.75 32.7531ZM35.5 28.9688C36.1016 28.9688 36.5938 29.4609 36.5938 30.0625V30.2812H39H39.875C40.4766 30.2812 40.9688 30.7734 40.9688 31.375C40.9688 31.9766 40.4766 32.4688 39.875 32.4688H39.7656L39.6781 32.7148C39.1914 34.0492 38.4531 35.2633 37.5125 36.2914C37.5617 36.3242 37.6109 36.3516 37.6602 36.3789L38.6937 36.9969C39.2133 37.3086 39.3773 37.9813 39.0711 38.4953C38.7648 39.0094 38.0867 39.1789 37.5727 38.8727L36.5391 38.2547C36.293 38.107 36.0578 37.9539 35.8227 37.7898C35.243 38.2 34.625 38.5555 33.9633 38.8508L33.7664 38.9383C33.2141 39.1844 32.5687 38.9328 32.3227 38.3805C32.0766 37.8281 32.3281 37.1828 32.8805 36.9367L33.0773 36.8492C33.4273 36.6906 33.7664 36.5156 34.0891 36.3133L33.4219 35.6461C32.9953 35.2195 32.9953 34.525 33.4219 34.0984C33.8484 33.6719 34.543 33.6719 34.9695 34.0984L35.768 34.8969L35.7953 34.9242C36.4734 34.2078 37.0258 33.3766 37.425 32.4633H35.5H31.5625C30.9609 32.4633 30.4688 31.9711 30.4688 31.3695C30.4688 30.768 30.9609 30.2758 31.5625 30.2758H34.4062V30.057C34.4062 29.4555 34.8984 28.9633 35.5 28.9633V28.9688Z" fill="black"/>
</svg>
