<svg width="57" height="51" viewBox="0 0 57 51" fill="none" xmlns="http://www.w3.org/2000/svg">
<path d="M6.33333 3.1875C6.33333 1.42441 4.91823 0 3.16667 0C1.4151 0 0 1.42441 0 3.1875V12.75V38.25C0 41.7662 2.8401 44.625 6.33333 44.625H20V38.25H6.33333V15.9375H20V9.5625H6.33333V3.1875Z" fill="black"/>
<path d="M22 6.5C22 4.9832 23.2556 3.75 24.8 3.75H33.2H35.3H36H47.2C48.7444 3.75 50 4.9832 50 6.5V17.5C50 19.0168 48.7444 20.25 47.2 20.25H36H35.3H33.2H24.8C23.2556 20.25 22 19.0168 22 17.5V6.5ZM36 6.5V17.5H47.2V6.5H36ZM29.8006 8.5582C29.6606 8.24883 29.3456 8.04688 29 8.04688C28.6544 8.04688 28.3394 8.24883 28.1994 8.5582L25.3994 14.7457C25.2025 15.1797 25.4037 15.6867 25.8456 15.8801C26.2875 16.0734 26.8038 15.8758 27.0006 15.4418L27.39 14.5781H30.61L30.9994 15.4418C31.1962 15.8758 31.7125 16.0691 32.1544 15.8801C32.5963 15.691 32.7931 15.1797 32.6006 14.7457L29.8006 8.5582ZM29 11.0203L29.8312 12.8594H28.1687L29 11.0203ZM41.6 8.04688C42.0812 8.04688 42.475 8.43359 42.475 8.90625V9.07812H44.4H45.1C45.5812 9.07812 45.975 9.46484 45.975 9.9375C45.975 10.4102 45.5812 10.7969 45.1 10.7969H45.0125L44.9425 10.9902C44.5531 12.0387 43.9625 12.9926 43.21 13.8004C43.2494 13.8262 43.2887 13.8477 43.3281 13.8691L44.155 14.3547C44.5706 14.5996 44.7019 15.1281 44.4569 15.532C44.2119 15.9359 43.6694 16.0691 43.2581 15.8285L42.4312 15.343C42.2344 15.227 42.0462 15.1066 41.8581 14.9777C41.3944 15.3 40.9 15.5793 40.3706 15.8113L40.2131 15.8801C39.7712 16.0734 39.255 15.8758 39.0581 15.4418C38.8612 15.0078 39.0625 14.5008 39.5044 14.3074L39.6619 14.2387C39.9419 14.1141 40.2131 13.9766 40.4713 13.8176L39.9375 13.2934C39.5962 12.9582 39.5962 12.4125 39.9375 12.0773C40.2787 11.7422 40.8344 11.7422 41.1756 12.0773L41.8144 12.7047L41.8362 12.7262C42.3787 12.1633 42.8206 11.5102 43.14 10.7926H41.6H38.45C37.9687 10.7926 37.575 10.4059 37.575 9.9332C37.575 9.46055 37.9687 9.07383 38.45 9.07383H40.725V8.90195C40.725 8.4293 41.1187 8.04258 41.6 8.04258V8.04688Z" fill="black"/>
<path d="M22 34.5C22 32.9832 23.2556 31.75 24.8 31.75H33.2H35.3H36H47.2C48.7444 31.75 50 32.9832 50 34.5V45.5C50 47.0168 48.7444 48.25 47.2 48.25H36H35.3H33.2H24.8C23.2556 48.25 22 47.0168 22 45.5V34.5ZM36 34.5V45.5H47.2V34.5H36ZM29.8006 36.5582C29.6606 36.2488 29.3456 36.0469 29 36.0469C28.6544 36.0469 28.3394 36.2488 28.1994 36.5582L25.3994 42.7457C25.2025 43.1797 25.4037 43.6867 25.8456 43.8801C26.2875 44.0734 26.8038 43.8758 27.0006 43.4418L27.39 42.5781H30.61L30.9994 43.4418C31.1962 43.8758 31.7125 44.0691 32.1544 43.8801C32.5963 43.691 32.7931 43.1797 32.6006 42.7457L29.8006 36.5582ZM29 39.0203L29.8312 40.8594H28.1687L29 39.0203ZM41.6 36.0469C42.0812 36.0469 42.475 36.4336 42.475 36.9062V37.0781H44.4H45.1C45.5812 37.0781 45.975 37.4648 45.975 37.9375C45.975 38.4102 45.5812 38.7969 45.1 38.7969H45.0125L44.9425 38.9902C44.5531 40.0387 43.9625 40.9926 43.21 41.8004C43.2494 41.8262 43.2887 41.8477 43.3281 41.8691L44.155 42.3547C44.5706 42.5996 44.7019 43.1281 44.4569 43.532C44.2119 43.9359 43.6694 44.0691 43.2581 43.8285L42.4312 43.343C42.2344 43.227 42.0462 43.1066 41.8581 42.9777C41.3944 43.3 40.9 43.5793 40.3706 43.8113L40.2131 43.8801C39.7712 44.0734 39.255 43.8758 39.0581 43.4418C38.8612 43.0078 39.0625 42.5008 39.5044 42.3074L39.6619 42.2387C39.9419 42.1141 40.2131 41.9766 40.4713 41.8176L39.9375 41.2934C39.5962 40.9582 39.5962 40.4125 39.9375 40.0773C40.2787 39.7422 40.8344 39.7422 41.1756 40.0773L41.8144 40.7047L41.8362 40.7262C42.3787 40.1633 42.8206 39.5102 43.14 38.7926H41.6H38.45C37.9687 38.7926 37.575 38.4059 37.575 37.9332C37.575 37.4605 37.9687 37.0738 38.45 37.0738H40.725V36.902C40.725 36.4293 41.1187 36.0426 41.6 36.0426V36.0469Z" fill="black"/>
</svg>
